<svg xmlns="http://www.w3.org/2000/svg" xmlns:xlink="http://www.w3.org/1999/xlink" width="262.545" height="251.564" viewBox="0 0 262.545 251.564">
  <defs>
    <filter id="Icon_Arrow_Left" x="0" y="0" width="262.545" height="251.564" filterUnits="userSpaceOnUse">
      <feOffset dy="3" input="SourceAlpha"/>
      <feGaussianBlur stdDeviation="3" result="blur"/>
      <feFlood flood-opacity="0.6"/>
      <feComposite operator="in" in2="blur"/>
      <feComposite in="SourceGraphic"/>
    </filter>
  </defs>
  <g transform="matrix(1, 0, 0, 1, 0, 0)" filter="url(#Icon_Arrow_Left)">
    <g id="Icon_Arrow_Left-2" data-name="Icon Arrow Left" transform="translate(253.54 144.56) rotate(150)" fill="none">
      <path d="M77.511,31.522a20,20,0,0,1,34.977,0l27.352,49.3q.284.512.6,1.006l29.428,46.416a20,20,0,0,1-17.452,30.7l-56.853-1.6q-.561-.016-1.122,0l-56.853,1.6a20,20,0,0,1-17.452-30.7L49.562,81.828q.313-.494.6-1.006Z" stroke="none"/>
      <path d="M 94.99998474121094 31.22450256347656 C 93.22967529296875 31.22450256347656 88.83376312255859 31.7261962890625 86.25563812255859 36.37300109863281 L 58.90357971191406 85.67240905761719 C 58.61961364746094 86.18434906005859 58.3206787109375 86.68784332275391 58.0072021484375 87.1822509765625 L 28.57926940917969 133.5982513427734 C 25.72163391113281 138.1054992675781 27.40357971191406 142.2108154296875 28.25932312011719 143.7666320800781 C 30.04377746582031 147.0108337402344 33.30044555664063 148.9488830566406 37.29159545898438 148.9488830566406 C 37.29598999023438 148.9488830566406 37.30108642578125 148.9488830566406 37.30548095703125 148.9488830566406 L 94.158203125 147.3529968261719 L 95.84176635742188 147.3529968261719 L 153.0131988525391 148.953369140625 C 156.6909790039063 148.953369140625 159.9533233642578 147.0141906738281 161.7399291992188 143.7660675048828 C 162.5957336425781 142.2101287841797 164.27783203125 138.1046905517578 161.4207305908203 133.5982513427734 L 131.9926147460938 87.18203735351563 C 131.6794128417969 86.68803405761719 131.3807373046875 86.18490600585938 131.0967102050781 85.67300415039063 L 103.7443008422852 36.37300109863281 C 101.1661758422852 31.7261962890625 96.77029418945313 31.22450256347656 94.99998474121094 31.22450256347656 M 94.99997711181641 21.22450256347656 C 101.8399810791016 21.22450256347656 108.6799850463867 24.65684509277344 112.4886093139648 31.52153015136719 L 139.8410186767578 80.821533203125 C 140.0303039550781 81.16265869140625 140.2294921875 81.49819183349609 140.4383544921875 81.82765960693359 L 169.8663635253906 128.2436828613281 C 178.3366241455078 141.6036682128906 168.6748657226563 158.953369140625 153.01318359375 158.953369140625 C 152.8137664794922 158.953369140625 152.615234375 158.9505920410156 152.4138946533203 158.9449462890625 L 95.56117248535156 157.3490600585938 C 95.37415313720703 157.3438110351563 95.18708038330078 157.3411865234375 95 157.3411865234375 C 94.81291198730469 157.3411865234375 94.62583160400391 157.3438110351563 94.43879699707031 157.3490600585938 L 37.58607482910156 158.9449462890625 C 37.38571166992188 158.9505615234375 37.18519592285156 158.953369140625 36.98674011230469 158.953369140625 C 21.32331848144531 158.953369140625 11.66281127929688 141.6044921875 20.13363647460938 128.2436828613281 L 49.56158447265625 81.82769012451172 C 49.77047729492188 81.49819183349609 49.96969604492188 81.16265869140625 50.15895080566406 80.82150268554688 L 77.51132965087891 31.52153015136719 C 81.31996917724609 24.65684509277344 88.15997314453125 21.22450256347656 94.99997711181641 21.22450256347656 Z" stroke="none" fill="rgba(0,0,0,0.6)"/>
    </g>
  </g>
</svg>
