<svg xmlns="http://www.w3.org/2000/svg" xmlns:xlink="http://www.w3.org/1999/xlink" width="56.064" height="56.063" viewBox="0 0 56.064 56.063">
  <defs>
    <filter id="Icon_awesome-linkedin-in" x="0" y="0" width="56.064" height="56.063" filterUnits="userSpaceOnUse">
      <feOffset dy="3" input="SourceAlpha"/>
      <feGaussianBlur stdDeviation="3" result="blur"/>
      <feFlood flood-opacity="0.502"/>
      <feComposite operator="in" in2="blur"/>
      <feComposite in="SourceGraphic"/>
    </filter>
  </defs>
  <g transform="matrix(1, 0, 0, 1, 0, 0)" filter="url(#Icon_awesome-linkedin-in)">
    <path id="Icon_awesome-linkedin-in-2" data-name="Icon awesome-linkedin-in" d="M8.52,38.064H.629V12.651H8.52ZM4.57,9.184A4.592,4.592,0,1,1,9.14,4.571,4.609,4.609,0,0,1,4.57,9.184ZM38.055,38.064H30.181V25.693c0-2.948-.059-6.729-4.1-6.729-4.1,0-4.732,3.2-4.732,6.517V38.064H13.463V12.651h7.569v3.467h.11a8.292,8.292,0,0,1,7.467-4.1c7.987,0,9.455,5.259,9.455,12.09v13.96Z" transform="translate(9 6)" fill="#fff"/>
  </g>
</svg>
