<svg id="UI_UX_icon" data-name="UI / UX icon" xmlns="http://www.w3.org/2000/svg" width="89" height="84" viewBox="0 0 89 84">
  <path id="Icon_awesome-shapes" data-name="Icon awesome-shapes" d="M79.941,41.219v20.61c0,2.276-2.237,4.122-5,4.122H49.963c-2.759,0-5-1.846-5-4.122V41.219c0-2.276,2.237-4.122,5-4.122H74.944C77.7,37.1,79.941,38.943,79.941,41.219ZM19.985,32.975C8.948,32.975,0,40.357,0,49.463S8.948,65.95,19.985,65.95,39.97,58.568,39.97,49.463,31.022,32.975,19.985,32.975Zm54.808-4.122c3.956,0,6.43-3.435,4.451-6.183L64.407,2.061c-1.978-2.748-6.925-2.748-8.9,0L40.667,22.67c-1.978,2.748.495,6.183,4.451,6.183H74.793Z" transform="translate(5.03 8.05)" fill="#30feca"/>
  <rect id="Rectangle_35" data-name="Rectangle 35" width="89" height="84" fill="none"/>
</svg>
