<svg xmlns="http://www.w3.org/2000/svg" xmlns:xlink="http://www.w3.org/1999/xlink" width="66.533" height="65.786" viewBox="0 0 66.533 65.786">
  <defs>
    <filter id="Icon_awesome-whatsapp" x="0" y="0" width="66.533" height="65.786" filterUnits="userSpaceOnUse">
      <feOffset dy="3" input="SourceAlpha"/>
      <feGaussianBlur stdDeviation="3" result="blur"/>
      <feFlood flood-opacity="0.51"/>
      <feComposite operator="in" in2="blur"/>
      <feComposite in="SourceGraphic"/>
    </filter>
  </defs>
  <g transform="matrix(1, 0, 0, 1, 0, 0)" filter="url(#Icon_awesome-whatsapp)">
    <path id="Icon_awesome-whatsapp-2" data-name="Icon awesome-whatsapp" d="M41.264,9.194A24.059,24.059,0,0,0,24.256,2.25,23.9,23.9,0,0,0,.206,25.93,23.425,23.425,0,0,0,3.412,37.77L0,50.036l12.751-3.3a24.273,24.273,0,0,0,11.494,2.88h.011C37.5,49.62,48.533,39,48.533,25.941A23.6,23.6,0,0,0,41.264,9.194ZM24.256,45.631A20.191,20.191,0,0,1,14.072,42.89l-.726-.427L5.785,44.415,7.8,37.151,7.323,36.4A19.4,19.4,0,0,1,4.268,25.93,20.052,20.052,0,0,1,38.393,12.021a19.615,19.615,0,0,1,6.077,13.92c0,10.859-9.2,19.691-20.215,19.691ZM35.219,30.89c-.6-.3-3.553-1.728-4.106-1.92s-.953-.3-1.354.3-1.549,1.92-1.907,2.325-.7.448-1.3.149c-3.532-1.739-5.85-3.1-8.179-7.04-.617-1.045.617-.971,1.766-3.232a1.082,1.082,0,0,0-.054-1.035c-.152-.3-1.354-3.211-1.852-4.395-.487-1.152-.986-.992-1.354-1.013-.347-.021-.747-.021-1.148-.021a2.242,2.242,0,0,0-1.6.736,6.607,6.607,0,0,0-2.1,4.939c0,2.912,2.156,5.728,2.448,6.123s4.236,6.368,10.27,8.939c3.813,1.621,5.308,1.76,7.215,1.483,1.159-.171,3.553-1.429,4.052-2.816a4.878,4.878,0,0,0,.347-2.816C36.216,31.327,35.815,31.178,35.219,30.89Z" transform="translate(9 3.75)" fill="#fff"/>
  </g>
</svg>
